#!OML:ASF X:\für Bonn\!DataBase\2005_08_11_Bastian_Final\c3d\Bastian.ASF
:FULLY-SPECIFIED
:DEGREES
558
root 0.568178 1.19412 20.3719 -639.379 -0.842445 -178.899
lowerback 8.83828 -1.19559 3.90356
upperback 7.69165 -2.07412 1.61116
thorax 2.99667 -1.24757 -0.40787
lowerneck -16.0081 -5.22804 -5.9051
upperneck 4.77631 -6.31783 4.80744
head 4.33411 -2.99878 1.89746
rclavicle 1.15295e-014 -2.48481e-015
rhumerus -57.822 50.1866 -111.932
rradius 24.9321
rwrist -9.72054
rhand -11.6738 -1.53303
rfingers 7.12502
rthumb 14.3713 -31.0156
lclavicle 1.15295e-014 -2.48481e-015
lhumerus -40.0998 -38.844 104.102
lradius 16.9337
lwrist 21.6014
lhand -6.89498 -5.70708
lfingers 7.12502
lthumb 18.9718 23.3877
rfemur -0.184356 6.9196 22.71
rtibia 31.6347
rfoot -14.6309 -25.279
rtoes 1.28359
lfemur 4.01945 3.11601 -15.4289
ltibia 21.3592
lfoot -1.95806 9.09233
ltoes -6.1251
559
root 0.568201 1.19377 20.3733 -639.318 -0.843217 -178.909
lowerback 8.78742 -1.193 3.90392
upperback 7.65976 -2.06699 1.61363
thorax 2.99101 -1.24161 -0.406836
lowerneck -16.1836 -5.23232 -5.89472
upperneck 4.72772 -6.31991 4.82504
head 4.34678 -2.99797 1.89796
rclavicle -2.66371e-014 2.85256e-014
rhumerus -57.9185 50.2182 -112.026
rradius 24.9601
rwrist -9.83223
rhand -11.6833 -1.57143
rfingers 7.12502
rthumb 14.3622 -31.0546
lclavicle -2.66371e-014 2.85256e-014
lhumerus -40.1534 -38.8853 104.146
lradius 16.9318
lwrist 21.6306
lhand -6.92792 -5.67725
lfingers 7.12502
lthumb 18.9401 23.4206
rfemur -0.251844 6.92802 22.7019
rtibia 31.6287
rfoot -14.6188 -25.2559
rtoes 1.42202
lfemur 3.95188 3.11329 -15.4356
ltibia 21.3617
lfoot -1.98228 9.11939
ltoes -6.0792
560
root 0.567518 1.19265 20.3742 -639.281 -0.846295 -178.916
lowerback 8.76371 -1.19725 3.91173
upperback 7.6299 -2.06769 1.60397
thorax 2.97173 -1.23956 -0.421191
lowerneck -16.3237 -5.22507 -5.84869
upperneck 4.64696 -6.31592 4.84018
head 4.3424 -2.99459 1.89373
rclavicle 2.10712e-014 -2.0276e-014
rhumerus -57.9665 50.1945 -112.067
rradius 24.9619
rwrist -9.81352
rhand -11.6934 -1.59915
rfingers 7.12502
rthumb 14.3525 -31.083
lclavicle 2.10712e-014 -2.0276e-014
lhumerus -40.1994 -38.9286 104.188
lradius 16.8965
lwrist 21.6455
lhand -7.03555 -5.66145
lfingers 7.12502
lthumb 18.8366 23.4465
rfemur -0.300541 6.89767 22.6808
rtibia 31.626
rfoot -14.5831 -25.2075
rtoes 1.52515
lfemur 3.90949 3.11039 -15.446
ltibia 21.3588
lfoot -1.99114 9.16717
ltoes -6.03969
561
root 0.56735 1.1922 20.3756 -639.221 -0.823195 -178.933
lowerback 8.69632 -1.2009 3.92425
upperback 7.61359 -2.07301 1.6279
thorax 2.99191 -1.24081 -0.404851
lowerneck -16.4976 -5.2218 -5.86461
upperneck 4.57956 -6.30342 4.868
head 4.34927 -2.9867 1.90315
rclavicle 1.51076e-014 -2.44505e-014
rhumerus -58.0281 50.2703 -112.102
rradius 24.9706
rwrist -9.85895
rhand -11.6878 -1.59761
rfingers 7.12502
rthumb 14.3578 -31.0811
lclavicle 1.51076e-014 -2.44505e-014
lhumerus -40.1843 -38.8975 104.201
lradius 16.8802
lwrist 21.6285
lhand -7.10085 -5.65351
lfingers 7.12502
lthumb 18.7738 23.4605
rfemur -0.37205 6.89646 22.695
rtibia 31.6226
rfoot -14.5517 -25.1759
rtoes 1.60796
lfemur 3.83665 3.09784 -15.4303
ltibia 21.3596
lfoot -2.00845 9.21045
ltoes -6.16363
562
root 0.567134 1.19165 20.3767 -639.171 -0.827329 -178.941
lowerback 8.65144 -1.19869 3.92583
upperback 7.58399 -2.06634 1.62687
thorax 2.98525 -1.23511 -0.407934
lowerneck -16.6626 -5.22539 -5.81948
upperneck 4.5226 -6.30923 4.85176
head 4.35542 -2.98932 1.8877
rclavicle -1.55052e-014 2.15681e-014
rhumerus -58.0393 50.2317 -112.093
rradius 24.9539
rwrist -9.81319
rhand -11.6794 -1.56612
rfingers 7.12502
rthumb 14.3659 -31.049
lclavicle -1.55052e-014 2.15681e-014
lhumerus -40.2102 -38.8894 104.21
lradius 16.879
lwrist 21.6265
lhand -7.14274 -5.67204
lfingers 7.12502
lthumb 18.7335 23.4459
rfemur -0.431836 6.88721 22.6783
rtibia 31.6222
rfoot -14.5501 -25.1337
rtoes 1.57997
lfemur 3.78266 3.0912 -15.4424
ltibia 21.3573
lfoot -2.02079 9.24057
ltoes -6.07079
563
root 0.56665 1.19078 20.3778 -639.125 -0.827584 -178.953
lowerback 8.61461 -1.19936 3.922
upperback 7.55348 -2.06415 1.63486
thorax 2.97356 -1.23255 -0.398144
lowerneck -16.8276 -5.21192 -5.79401
upperneck 4.47905 -6.29024 4.85441
head 4.36576 -2.97883 1.88341
rclavicle -5.1684e-015 -4.27387e-015
rhumerus -58.138 50.2713 -112.174
rradius 24.9703
rwrist -9.85798
rhand -11.6529 -1.59011
rfingers 7.12502
rthumb 14.3914 -31.0712
lclavicle -5.1684e-015 -4.27387e-015
lhumerus -40.2639 -38.9128 104.267
lradius 16.8615
lwrist 21.6317
lhand -7.20557 -5.66254
lfingers 7.12502
lthumb 18.6731 23.4612
rfemur -0.487682 6.87261 22.6645
rtibia 31.6143
rfoot -14.5169 -25.0969
rtoes 1.69071
lfemur 3.72633 3.08907 -15.449
ltibia 21.3644
lfoot -2.04739 9.26796
ltoes -6.15687
564
root 0.566267 1.19077 20.3787 -639.077 -0.835319 -178.96
lowerback 8.56015 -1.19676 3.92118
upperback 7.53494 -2.05904 1.63234
thorax 2.98385 -1.22789 -0.401879
lowerneck -16.994 -5.21203 -5.75098
upperneck 4.40143 -6.29247 4.84741
head 4.36582 -2.97967 1.8717
rclavicle 1.43125e-014 -6.55989e-015
rhumerus -58.1889 50.282 -112.208
rradius 24.9861
rwrist -9.87967
rhand -11.6629 -1.6225
rfingers 7.12502
rthumb 14.3818 -31.1043
lclavicle 1.43125e-014 -6.55989e-015
lhumerus -40.3293 -39.045 104.372
lradius 16.857
lwrist 21.7426
lhand -7.2725 -5.64779
lfingers 7.12502
lthumb 18.6087 23.4821
rfemur -0.541726 6.84911 22.6394
rtibia 31.6101
rfoot -14.4882 -25.0525
rtoes 1.72221
lfemur 3.67717 3.04513 -15.4698
ltibia 21.3659
lfoot -2.09268 9.31288
ltoes -5.74323
